<svg xmlns="http://www.w3.org/2000/svg" viewBox="0 0 22 14">
  <rect width="22" height="14" rx="1.5" fill="#1a1a2e"/>
  <g stroke-width="0.5" stroke-linecap="round" fill="none">
    <!-- M -->
    <g stroke="#ff6b6b">
      <line x1="2" y1="4" x2="2" y2="2"/>
      <line x1="2" y1="4" x2="2" y2="6"/>
      <line x1="2" y1="6" x2="2" y2="8"/>
      <line x1="2" y1="10" x2="2" y2="12"/>
      <line x1="2" y1="8" x2="2" y2="10"/>
      <line x1="8" y1="2" x2="8" y2="4"/>
      <line x1="3" y1="3" x2="3" y2="5"/>
      <line x1="3" y1="5" x2="3" y2="7"/>
      <line x1="3" y1="7" x2="3" y2="9"/>
      <line x1="1" y1="1" x2="1" y2="3"/>
      <line x1="1" y1="1" x2="3" y2="1"/>
      <line x1="3" y1="1" x2="5" y2="1"/>
      <line x1="5" y1="1" x2="7" y2="1"/>
      <line x1="7" y1="1" x2="9" y2="1"/>
      <line x1="9" y1="1" x2="9" y2="3"/>
      <line x1="9" y1="3" x2="9" y2="5"/>
      <line x1="9" y1="5" x2="9" y2="7"/>
      <line x1="9" y1="7" x2="9" y2="9"/>
      <line x1="9" y1="9" x2="9" y2="11"/>
      <line x1="9" y1="11" x2="9" y2="13"/>
      <line x1="1" y1="3" x2="1" y2="5"/>
      <line x1="1" y1="5" x2="1" y2="7"/>
      <line x1="1" y1="7" x2="1" y2="9"/>
      <line x1="1" y1="9" x2="1" y2="11"/>
      <line x1="1" y1="11" x2="1" y2="13"/>
      <line x1="1" y1="13" x2="3" y2="13"/>
      <line x1="5" y1="3" x2="7" y2="3"/>
      <line x1="2" y1="2" x2="4" y2="2"/>
      <line x1="4" y1="2" x2="6" y2="2"/>
      <line x1="6" y1="2" x2="8" y2="2"/>
      <line x1="7" y1="3" x2="7" y2="5"/>
      <line x1="7" y1="13" x2="9" y2="13"/>
      <line x1="3" y1="9" x2="3" y2="11"/>
      <line x1="7" y1="11" x2="7" y2="9"/>
      <line x1="7" y1="9" x2="7" y2="7"/>
      <line x1="7" y1="5" x2="7" y2="7"/>
      <line x1="8" y1="4" x2="8" y2="6"/>
      <line x1="8" y1="6" x2="8" y2="8"/>
      <line x1="8" y1="8" x2="8" y2="10"/>
      <line x1="8" y1="10" x2="8" y2="12"/>
      <line x1="4" y1="2" x2="4" y2="4"/>
      <line x1="4" y1="4" x2="4" y2="6"/>
      <line x1="3" y1="7" x2="5" y2="7"/>
      <line x1="5" y1="5" x2="5" y2="7"/>
      <line x1="5" y1="3" x2="5" y2="5"/>
      <line x1="3" y1="11" x2="3" y2="13"/>
      <line x1="7" y1="11" x2="7" y2="13"/>
    </g>
    <!-- Z -->
    <g stroke="#4ecdc4">
      <line x1="14" y1="6" x2="14" y2="8"/>
      <line x1="14" y1="10" x2="14" y2="12"/>
      <line x1="14" y1="8" x2="14" y2="10"/>
      <line x1="20" y1="2" x2="20" y2="4"/>
      <line x1="15" y1="7" x2="15" y2="9"/>
      <line x1="13" y1="1" x2="13" y2="3"/>
      <line x1="13" y1="1" x2="15" y2="1"/>
      <line x1="15" y1="1" x2="17" y2="1"/>
      <line x1="17" y1="1" x2="19" y2="1"/>
      <line x1="19" y1="1" x2="21" y2="1"/>
      <line x1="21" y1="1" x2="21" y2="3"/>
      <line x1="21" y1="3" x2="21" y2="5"/>
      <line x1="21" y1="5" x2="21" y2="7"/>
      <line x1="21" y1="11" x2="21" y2="13"/>
      <line x1="13" y1="5" x2="13" y2="7"/>
      <line x1="13" y1="7" x2="13" y2="9"/>
      <line x1="13" y1="9" x2="13" y2="11"/>
      <line x1="13" y1="11" x2="13" y2="13"/>
      <line x1="13" y1="13" x2="15" y2="13"/>
      <line x1="15" y1="3" x2="17" y2="3"/>
      <line x1="17" y1="3" x2="19" y2="3"/>
      <line x1="14" y1="2" x2="16" y2="2"/>
      <line x1="16" y1="2" x2="18" y2="2"/>
      <line x1="18" y1="2" x2="20" y2="2"/>
      <line x1="19" y1="3" x2="19" y2="5"/>
      <line x1="15" y1="13" x2="17" y2="13"/>
      <line x1="17" y1="13" x2="19" y2="13"/>
      <line x1="19" y1="13" x2="21" y2="13"/>
      <line x1="15" y1="9" x2="15" y2="11"/>
      <line x1="15" y1="11" x2="17" y2="11"/>
      <line x1="17" y1="11" x2="19" y2="11"/>
      <line x1="20" y1="4" x2="20" y2="6"/>
      <line x1="20" y1="12" x2="18" y2="12"/>
      <line x1="18" y1="12" x2="16" y2="12"/>
      <line x1="16" y1="12" x2="14" y2="12"/>
      <line x1="13" y1="3" x2="15" y2="3"/>
      <line x1="13" y1="5" x2="15" y2="5"/>
      <line x1="14" y1="6" x2="16" y2="6"/>
      <line x1="17" y1="7" x2="19" y2="7"/>
      <line x1="18" y1="6" x2="20" y2="6"/>
      <line x1="15" y1="5" x2="17" y2="5"/>
      <line x1="16" y1="6" x2="18" y2="6"/>
      <line x1="17" y1="5" x2="19" y2="5"/>
      <line x1="15" y1="7" x2="17" y2="7"/>
      <line x1="19" y1="7" x2="21" y2="7"/>
      <line x1="19" y1="11" x2="21" y2="11"/>
    </g>
  </g>
</svg>
